<svg id="Ebene_2" data-name="Ebene 2" xmlns="http://www.w3.org/2000/svg" viewBox="0 0 141.7 140.04"><defs><style>.cls-1{fill:#fff;}.cls-2{fill:none;}</style></defs><title>illustrator</title><path class="cls-1" d="M106.43,59a47.87,47.87,0,0,0-67.68,67.69A47.87,47.87,0,0,0,106.43,59Zm-2.11,65.58A44.89,44.89,0,1,1,40.68,61.25l.18-.18a44.88,44.88,0,0,1,63.46,63.47Z"/><path class="cls-1" d="M105.12,66.44a1.49,1.49,0,1,0-2.32,1.88h0a38.9,38.9,0,0,1-56.14,53.47,1.5,1.5,0,1,0-2,2.24h0a41.88,41.88,0,0,0,60.45-57.59Z"/><path class="cls-1" d="M33.7,92.8a38.89,38.89,0,0,1,64.82-29,1.5,1.5,0,1,0,2-2.24,41.89,41.89,0,0,0-60.46,57.59,1.5,1.5,0,0,0,2.32-1.87A38.94,38.94,0,0,1,33.7,92.8Z"/><path class="cls-1" d="M66.3,76.1l-10,33.9H60.1l3.19-10.94H73.37L76.7,110h3.93L70.31,76.1ZM64.21,95.47l4.08-13.75L72.5,95.47Z"/><path class="cls-1" d="M86.9,75.62a1.92,1.92,0,0,0-1.41.6,1.88,1.88,0,0,0-.1,2.66h0l.1.1a1.93,1.93,0,0,0,1.41.61,2,2,0,0,0,2-2,1.89,1.89,0,0,0-.58-1.4A1.85,1.85,0,0,0,86.9,75.62Z"/><rect class="cls-1" x="85.08" y="85.73" width="3.49" height="24.26"/><rect class="cls-2" width="141.7" height="45.44"/></svg>