<svg id="Ebene_2" data-name="Ebene 2" xmlns="http://www.w3.org/2000/svg" xmlns:xlink="http://www.w3.org/1999/xlink" viewBox="0 0 141.7 140.04"><defs><style>.cls-1{fill:none;}.cls-2{fill:#fff;}.cls-3{clip-path:url(#clip-path);}</style><clipPath id="clip-path"><rect class="cls-1" x="50.36" y="76.62" width="40.46" height="33.33"/></clipPath></defs><title>photoshop</title><path class="cls-2" d="M106.43,59a47.87,47.87,0,0,0-67.68,67.69A47.87,47.87,0,0,0,106.43,59Zm-2.11,65.58A44.89,44.89,0,1,1,40.68,61.25l.18-.18a44.88,44.88,0,0,1,63.46,63.47Z"/><path class="cls-2" d="M105.12,66.44a1.49,1.49,0,1,0-2.32,1.88h0a38.9,38.9,0,0,1-56.14,53.47,1.5,1.5,0,1,0-2,2.24h0a41.88,41.88,0,0,0,60.45-57.59Z"/><path class="cls-2" d="M33.7,92.8a38.89,38.89,0,0,1,64.82-29,1.5,1.5,0,1,0,2-2.24,41.89,41.89,0,0,0-60.46,57.59,1.5,1.5,0,0,0,2.32-1.87A38.94,38.94,0,0,1,33.7,92.8Z"/><rect class="cls-1" width="141.7" height="45.44"/><g class="cls-3"><path class="cls-2" d="M53.72,109.25H50.36V76.62H61.59q4.57,0,6.78,2.84a11.8,11.8,0,0,1,2.21,7.46q0,1.63-.09,2.82a16.84,16.84,0,0,1-.58,3,8.89,8.89,0,0,1-1.33,2.94,7,7,0,0,1-2.56,2,9.07,9.07,0,0,1-4.1.86h-8.2Zm0-14H61.5a5.75,5.75,0,0,0,2.84-.65,5.17,5.17,0,0,0,1.7-1.4,5.84,5.84,0,0,0,.84-2.14,13,13,0,0,0,.33-2.1q0-.7,0-2,0-7.08-5.92-7.09h-7.6Z"/><path class="cls-2" d="M73.9,103.33l3.26-.14a3.46,3.46,0,0,0,1.72,2.68,6.56,6.56,0,0,0,3.54,1,6.46,6.46,0,0,0,3.47-.91,2.9,2.9,0,0,0,1.47-2.61,3.28,3.28,0,0,0-1.26-2.7A9.58,9.58,0,0,0,83,99q-1.82-.58-3.66-1.24a8.58,8.58,0,0,1-3.24-2.05,5.28,5.28,0,0,1-1.73-4,6.33,6.33,0,0,1,1.89-4.38q1.89-2,6.13-2a10.78,10.78,0,0,1,2.8.35,8.24,8.24,0,0,1,1.86.68l.56.33-1.07,2.94a6.19,6.19,0,0,0-3.92-1.17,5.92,5.92,0,0,0-3.61.91,2.79,2.79,0,0,0-1.19,2.31,2.71,2.71,0,0,0,1.49,2.42,16.46,16.46,0,0,0,3.36,1.49q1.86.61,3.7,1.35a7.66,7.66,0,0,1,3.12,2.33,6.46,6.46,0,0,1,1.28,4.19,6,6,0,0,1-2.1,4.55Q86.63,110,82.59,110A9.56,9.56,0,0,1,76.28,108a6.19,6.19,0,0,1-2.38-4.71"/></g></svg>