<svg id="Ebene_2" data-name="Ebene 2" xmlns="http://www.w3.org/2000/svg" viewBox="0 0 141.7 141.6"><defs><style>.cls-1,.cls-3{fill:none;}.cls-2{fill:#fff;}.cls-3{stroke:#fff;stroke-miterlimit:10;stroke-width:2px;}</style></defs><title>sketch</title><rect class="cls-1" width="141.7" height="45.44"/><path class="cls-2" d="M105.13,59.17a48.58,48.58,0,0,0-68.7,68.69,48.58,48.58,0,0,0,68.7-68.69ZM103,125.72A45.54,45.54,0,1,1,38.4,61.49l.18-.18A45.54,45.54,0,0,1,103,125.72Z"/><path class="cls-2" d="M103.8,66.76a1.52,1.52,0,0,0-2.36,1.91,39.47,39.47,0,0,1-57,54.26,1.53,1.53,0,1,0-2,2.28h0A42.51,42.51,0,0,0,103.8,66.76Z"/><path class="cls-2" d="M31.31,93.52A39.46,39.46,0,0,1,97.09,64.1a1.52,1.52,0,0,0,2-2.27,42.51,42.51,0,0,0-61.36,58.44,1.51,1.51,0,0,0,2.35-1.89A39.55,39.55,0,0,1,31.31,93.52Z"/><path class="cls-3" d="M71.21,76.36h-.76l-10.3,1.15L51.78,88.58l19,22.09,19-22.09L81.41,77.51Z"/><path class="cls-3" d="M70.79,76.36,59.5,88.53l11.33,22.14L82,88.53,70.87,76.36Z"/><polyline class="cls-3" points="51.77 88.59 59.49 88.53 60.15 77.51"/><polyline class="cls-3" points="89.78 88.59 82 88.53 81.4 77.51"/><line class="cls-3" x1="59.5" y1="88.53" x2="82" y2="88.53"/></svg>