<svg id="Capa_1" data-name="Capa 1" xmlns="http://www.w3.org/2000/svg" viewBox="0 0 512 512"><defs><style>.cls-1{fill:#fff;}</style></defs><title>website</title><path class="cls-1" d="M437,75A256,256,0,0,0,75,437,256,256,0,0,0,437,75ZM425.71,425.71A240,240,0,1,1,86.3,86.3,240,240,0,0,1,425.71,425.71Z"/><path class="cls-1" d="M430,115a8,8,0,0,0-12.43,10.08A208,208,0,0,1,117.34,411,8,8,0,1,0,106.67,423,224,224,0,0,0,430,115Z"/><path class="cls-1" d="M48,256C48,141.31,141.31,48,256,48a207.64,207.64,0,0,1,138.66,53A8,8,0,1,0,405.33,89,224,224,0,0,0,82,397,8,8,0,0,0,94.39,387,208.43,208.43,0,0,1,48,256Z"/><path class="cls-1" d="M354.59,343.38A131.46,131.46,0,0,0,352,165.84h0s0,0-.05-.06a131.47,131.47,0,0,0-91.42-41.48h0l-2.56-.06c-.67,0-1.33,0-2,0s-1.33,0-2,0l-2.55.06h0A131.47,131.47,0,0,0,160,165.77s0,0-.06.06h0a131.46,131.46,0,0,0-2.55,177.54s0,.09.06.13a3.71,3.71,0,0,0,.29.27,131.54,131.54,0,0,0,93.68,43.94h0l2.56.07c.67,0,1.33,0,2,0s1.33,0,2-.05l2.55-.06h0a131.5,131.5,0,0,0,93.76-44c.06-.07.15-.1.21-.18S354.56,343.42,354.59,343.38ZM133.38,260.55h54.56a167.87,167.87,0,0,0,11,55.53,167.53,167.53,0,0,0-36.87,18.78A122.07,122.07,0,0,1,133.38,260.55Zm31.15-86.27a167.43,167.43,0,0,0,35.91,17.65,167.8,167.8,0,0,0-12.5,59.52H133.38A122.17,122.17,0,0,1,164.53,174.28Zm214.09,77.17H324.06a167.8,167.8,0,0,0-12.5-59.52,167.43,167.43,0,0,0,35.91-17.65A122.17,122.17,0,0,1,378.62,251.45ZM251.45,192.19a158.71,158.71,0,0,1-38.5-5.83,159.08,159.08,0,0,1,38.5-50.17Zm0,9.09v50.17H197a158.93,158.93,0,0,1,12.12-56.71A167.67,167.67,0,0,0,251.45,201.28Zm9.1,0a167.22,167.22,0,0,0,42.3-6.54A158.72,158.72,0,0,1,315,251.45H260.55Zm0-9.09v-56a159.08,159.08,0,0,1,38.5,50.17A158.71,158.71,0,0,1,260.55,192.19Zm47.31-8.6A168,168,0,0,0,272,134.34a122.37,122.37,0,0,1,69,33.27A158.27,158.27,0,0,1,307.86,183.59Zm-103.72,0a158,158,0,0,1-33.16-16,122.34,122.34,0,0,1,69-33.27A167.87,167.87,0,0,0,204.14,183.59Zm-7.11,77h54.42v45.63a167.56,167.56,0,0,0-43.91,7A158.51,158.51,0,0,1,197,260.55Zm54.42,54.72v60.54a159.1,159.1,0,0,1-40.38-54.17A158.49,158.49,0,0,1,251.45,315.27Zm9.1,60.54V315.27a158.92,158.92,0,0,1,40.38,6.36A159,159,0,0,1,260.55,375.81Zm0-69.63V260.55H315a158.62,158.62,0,0,1-10.51,52.64A167.16,167.16,0,0,0,260.55,306.18Zm63.51-45.63h54.56A122.07,122.07,0,0,1,350,334.86a167.53,167.53,0,0,0-36.87-18.78A167.62,167.62,0,0,0,324.06,260.55ZM168.22,341.67a158.49,158.49,0,0,1,34.18-17.19A167.81,167.81,0,0,0,240,377.66,122.49,122.49,0,0,1,168.22,341.67Zm103.79,36a167.59,167.59,0,0,0,37.59-53.18,158.49,158.49,0,0,1,34.18,17.19A122.49,122.49,0,0,1,272,377.66Z"/></svg>